<svg width="24" height="24" viewBox="0 0 24 24" fill="none" xmlns="http://www.w3.org/2000/svg">
<g clip-path="url(#clip0_0_7487)">
<path fill-rule="evenodd" clip-rule="evenodd" d="M3 12C3 16.97 7.03 21 12 21C16.97 21 21 16.97 21 12C21 7.03 16.97 3 12 3C7.03 3 3 7.03 3 12Z" stroke="#181818" stroke-width="1.4" stroke-linecap="round" stroke-linejoin="round"/>
<path d="M14.868 13.9539C13.2417 15.5802 10.6112 15.5661 8.99902 13.9539" stroke="#181818" stroke-width="1.4" stroke-linecap="round" stroke-linejoin="round"/>
<path fill-rule="evenodd" clip-rule="evenodd" d="M10 11C10.55 11 11 10.55 11 10C11 9.45 10.55 9 10 9C9.45 9 9 9.45 9 10C9 10.55 9.45 11 10 11Z" fill="#181818"/>
<path fill-rule="evenodd" clip-rule="evenodd" d="M14 11C14.55 11 15 10.55 15 10C15 9.45 14.55 9 14 9C13.45 9 13 9.45 13 10C13 10.55 13.45 11 14 11Z" fill="#181818"/>
</g>
<defs>
<clipPath id="clip0_0_7487">
<rect width="24" height="24" fill="white"/>
</clipPath>
</defs>
</svg>
