<svg width="34" height="34" viewBox="0 0 34 34" fill="none" xmlns="http://www.w3.org/2000/svg">
<g clip-path="url(#clip0_0_51)">
<mask id="mask0_0_51" style="mask-type:luminance" maskUnits="userSpaceOnUse" x="0" y="0" width="34" height="34">
<path fill-rule="evenodd" clip-rule="evenodd" d="M0 0H34V34H0V0Z" fill="white"/>
</mask>
<g mask="url(#mask0_0_51)">
</g>
<g clip-path="url(#clip1_0_51)">
<path fill-rule="evenodd" clip-rule="evenodd" d="M24.0649 15.3245C24.0649 15.3245 26.8249 14.4745 27.4549 15.9945C28.1249 17.5745 25.7749 18.3645 24.7449 18.6745C23.7149 18.9845 13.2049 22.0245 13.2049 22.0245C13.2049 22.0245 10.3174 22.987 8.1699 20.4047L8.16051 20.4085L7.65051 19.8485L7.65177 19.8439C6.61504 18.68 6.4198 18.0064 6.4198 18.0064C6.4198 18.0064 6.6398 16.5464 8.4598 18.0064C8.81262 18.2913 9.18847 18.5165 9.50611 18.7067C9.65662 18.7969 9.79406 18.8792 9.9098 18.9564L9.9031 18.9592L10.5817 19.3998C10.9748 19.5235 11.3543 19.508 11.8449 19.3445L14.5649 18.6745L10.4949 12.6445C10.4949 12.6445 9.6649 11.3345 12.5249 11.9745C12.5249 11.9745 17.7049 15.9345 18.6349 16.6645C18.6349 16.6645 19.1149 16.9345 19.9949 16.6645L24.0649 15.3245Z" fill="#406EFD"/>
<path fill-rule="evenodd" clip-rule="evenodd" d="M3.3316 22.4344C3.1397 21.964 2.61082 21.7291 2.13314 21.9088C1.66274 22.1007 1.42782 22.6296 1.6076 23.1073C3.58253 28.0416 7.81227 31.7449 12.9742 33.0319C14.0222 33.2932 15.0967 33.4478 16.176 33.5004C25.2568 33.9094 32.9602 26.905 33.4007 17.8217C33.4199 17.5792 33.3349 17.3416 33.165 17.1549C33.0024 16.9804 32.7719 16.8714 32.5269 16.8618C32.3208 16.862 32.1195 16.9252 31.9523 17.0587L31.9813 16.9422L31.6274 17.2456L31.1668 17.6873L29.6737 19.0465C29.504 19.2309 29.429 19.4905 29.5019 19.7354C29.5651 19.9779 29.7665 20.1621 30.0067 20.2323L31.2002 20.5298C29.5237 27.3364 23.2692 32.0019 16.2622 31.6668C10.5163 31.3988 5.44989 27.7858 3.3316 22.4344ZM6.00129 4.79215C2.74589 7.72162 0.79365 11.8314 0.587841 16.2117C0.571141 16.6507 0.87456 17.0459 1.30391 17.1426L1.47856 17.1862C1.65319 17.1885 1.82051 17.1374 1.96839 17.0403L1.95388 17.0985L2.30292 16.7733L2.75862 16.351L4.24934 14.9604C4.45539 14.7953 4.54495 14.5188 4.49628 14.2593C4.43549 14.0071 4.2292 13.801 3.97692 13.7381L2.86108 13.4599C4.55212 6.67757 10.8017 2.03148 17.7797 2.35934C23.5377 2.62007 28.6041 6.23307 30.7297 11.5966C30.9216 12.067 31.4529 12.2922 31.9306 12.1125C32.401 11.9206 32.6262 11.3893 32.4464 10.9116C30.4447 5.8778 26.0985 2.1455 20.8275 0.924029C15.5467 -0.299861 10.0032 1.14188 6.00129 4.79215Z" fill="#406EFD"/>
</g>
</g>
<defs>
<clipPath id="clip0_0_51">
<rect width="34" height="34" fill="white"/>
</clipPath>
<clipPath id="clip1_0_51">
<rect width="39.886" height="40.0279" fill="white" transform="translate(-2.94287 -3.01396)"/>
</clipPath>
</defs>
</svg>
