<svg width="26" height="26" viewBox="0 0 26 26" fill="none" xmlns="http://www.w3.org/2000/svg">
<g clip-path="url(#clip0_0_1098)">
<path fill-rule="evenodd" clip-rule="evenodd" d="M10.6103 22.5604C10.4403 22.7404 10.2203 22.8504 9.97033 22.8604H9.92033C9.43033 22.8604 9.04033 22.4604 9.02033 21.9704V6.34036L7.15033 8.27036C6.98033 8.45036 6.75033 8.55036 6.50033 8.55036C6.26033 8.55036 6.03033 8.45036 5.86033 8.27036C5.68033 8.09036 5.59033 7.86036 5.59033 7.61036C5.59033 7.35036 5.68033 7.12036 5.86033 6.94036L9.25033 3.44036L9.27033 3.42036C9.44033 3.23036 9.68033 3.12036 9.94033 3.12036C10.1603 3.12036 10.3803 3.20036 10.5403 3.35036C10.7403 3.53036 10.8503 3.79036 10.8503 4.06036V21.8804V21.9004C10.8503 22.1404 10.7703 22.3804 10.6103 22.5604ZM15.3883 3.425C15.5583 3.245 15.7783 3.135 16.0183 3.125H16.0683C16.5583 3.125 16.9483 3.515 16.9783 4.025V19.655L18.8483 17.725C19.0183 17.535 19.2483 17.445 19.4883 17.445C19.7383 17.445 19.9583 17.535 20.1383 17.725C20.3183 17.905 20.4083 18.135 20.4083 18.385C20.4083 18.645 20.3183 18.875 20.1383 19.055L16.7483 22.555L16.7283 22.565C16.5583 22.765 16.3183 22.875 16.0583 22.875C15.8383 22.875 15.6183 22.795 15.4583 22.635C15.2583 22.465 15.1483 22.205 15.1483 21.935V4.105V4.085C15.1383 3.845 15.2283 3.605 15.3883 3.425Z" fill="#CCCCCC"/>
</g>
<defs>
<clipPath id="clip0_0_1098">
<rect width="26" height="26" fill="white"/>
</clipPath>
</defs>
</svg>
