<svg width="22" height="22" viewBox="0 0 22 22" fill="none" xmlns="http://www.w3.org/2000/svg">
<g clip-path="url(#clip0_0_331)">
<path fill-rule="evenodd" clip-rule="evenodd" d="M13.22 4.99994L14.27 6.57994L14.7 7.24994H17.75C18.16 7.24994 18.5 7.59994 18.5 8.01994V16.2599C18.5 16.6799 18.17 16.9999 17.75 16.9999H4.25C3.84 16.9999 3.5 16.6599 3.5 16.2499V8.00994C3.5 7.58994 3.84 7.24994 4.25 7.24994H7.3L7.75 6.57994L8.8 4.99994H13.25M8 3.49994L6.5 5.74994H4.25C3.01 5.74994 2 6.76994 2 8.00994V16.2499C2 17.4899 3.01 18.4999 4.25 18.4999H17.75C18.99 18.4999 20 17.4999 20 16.2599V8.01994C20 6.77994 18.99 5.74994 17.75 5.74994H15.5L14 3.49994H8Z" fill="#181818"/>
<path fill-rule="evenodd" clip-rule="evenodd" d="M8.75 11.75C8.75 12.99 9.76 14 11 14C12.24 14 13.25 12.99 13.25 11.75C13.25 10.51 12.24 9.49997 11 9.49997C9.76 9.49997 8.75 10.51 8.75 11.75ZM11 15.4999C13.07 15.4999 14.75 13.8199 14.75 11.7499C14.75 9.67994 13.07 7.99994 11 7.99994C8.93 7.99994 7.25 9.67994 7.25 11.7499C7.25 13.8199 8.93 15.4999 11 15.4999Z" fill="#181818"/>
</g>
<defs>
<clipPath id="clip0_0_331">
<rect width="22" height="22" fill="white"/>
</clipPath>
</defs>
</svg>
