<svg width="24" height="24" viewBox="0 0 24 24" fill="none" xmlns="http://www.w3.org/2000/svg">
<g clip-path="url(#clip0_0_702)">
<path fill-rule="evenodd" clip-rule="evenodd" d="M4 6C4 4.34315 5.34315 3 7 3H17C18.6569 3 20 4.34315 20 6V17C20 17.5523 19.5523 18 19 18H5C4.44772 18 4 17.5523 4 17V6Z" stroke="#222625" stroke-width="1.4" stroke-linecap="round" stroke-linejoin="round"/>
<path fill-rule="evenodd" clip-rule="evenodd" d="M6 18H9V20C9 20.5523 8.55228 21 8 21H7C6.44772 21 6 20.5523 6 20V18Z" stroke="#222625" stroke-width="1.4" stroke-linecap="round" stroke-linejoin="round"/>
<path fill-rule="evenodd" clip-rule="evenodd" d="M15 18H18V20C18 20.5523 17.5523 21 17 21H16C15.4477 21 15 20.5523 15 20V18Z" stroke="#222625" stroke-width="1.4" stroke-linecap="round" stroke-linejoin="round"/>
<path d="M4 10L7 12H17L20 10" stroke="#222625" stroke-width="1.4" stroke-linecap="round" stroke-linejoin="round"/>
<path d="M18.0003 11C18.0003 10.74 17.9503 10.48 17.8503 10.23C17.7503 9.99 17.6003 9.77 17.4103 9.59C17.2303 9.4 17.0103 9.25 16.7703 9.15C16.5203 9.05 16.2603 9 16.0003 9C15.7403 9 15.4803 9.05 15.2303 9.15C14.9903 9.25 14.7703 9.4 14.5903 9.59C14.4003 9.77 14.2503 9.99 14.1503 10.23C14.0503 10.48 13.9703 11.05 13.9703 11.31" stroke="#222625" stroke-width="1.4" stroke-linecap="round" stroke-linejoin="round"/>
<path d="M7 15H8" stroke="#222625" stroke-width="1.4" stroke-linecap="round" stroke-linejoin="round"/>
<path d="M16 15H17" stroke="#222625" stroke-width="1.4" stroke-linecap="round" stroke-linejoin="round"/>
<path fill-rule="evenodd" clip-rule="evenodd" d="M20 8C20 7.44772 20.4477 7 21 7C21.5523 7 22 7.44772 22 8V10C22 10.5523 21.5523 11 21 11C20.4477 11 20 10.5523 20 10V8Z" fill="#222625"/>
<path fill-rule="evenodd" clip-rule="evenodd" d="M2 8C2 7.44772 2.44772 7 3 7C3.55228 7 4 7.44772 4 8V10C4 10.5523 3.55228 11 3 11C2.44772 11 2 10.5523 2 10V8Z" fill="#222625"/>
</g>
<defs>
<clipPath id="clip0_0_702">
<rect width="24" height="24" fill="white"/>
</clipPath>
</defs>
</svg>
