<svg width="24" height="24" viewBox="0 0 24 24" fill="none" xmlns="http://www.w3.org/2000/svg">
<g clip-path="url(#clip0_0_956)">
<g clip-path="url(#clip1_0_956)">
<path fill-rule="evenodd" clip-rule="evenodd" d="M12.6054 16.6863L15.2754 14.0063C15.5654 13.7163 15.5654 13.2363 15.2754 12.9463C14.9854 12.6563 14.5054 12.6563 14.2154 12.9463L11.5354 15.6163C11.4654 15.6863 11.3754 15.7263 11.2754 15.7263C11.1754 15.7263 11.0754 15.6863 11.0054 15.6163L9.78543 14.3963C9.49543 14.1063 9.01543 14.1063 8.72543 14.4063C8.43543 14.6963 8.43543 15.1663 8.72543 15.4663L9.94543 16.6863C10.2954 17.0363 10.7754 17.2363 11.2754 17.2363C11.7754 17.2363 12.2454 17.0363 12.6054 16.6863Z" fill="#181818"/>
<path fill-rule="evenodd" clip-rule="evenodd" d="M16.3859 3.37V2.75C16.3859 2.34 16.0459 2 15.6359 2C15.2159 2 14.8859 2.34 14.8859 2.75V3.37H9.00591V2.75C9.00591 2.34 8.66591 2 8.25591 2C7.83591 2 7.50591 2.34 7.50591 2.75V3.37H7.19591C4.70591 3.37 2.68591 5.39 2.68591 7.88V17.49C2.68591 19.98 4.70591 22 7.19591 22H16.8059C19.2959 22 21.3159 19.98 21.3159 17.49V7.88C21.3159 5.39 19.2959 3.37 16.8059 3.37H16.3859ZM7.19933 4.87305C5.53933 4.87305 4.18933 6.22305 4.18933 7.88305V8.33305H19.8093V7.88305C19.8093 6.22305 18.4693 4.87305 16.7993 4.87305H16.3893V5.49305C16.3893 5.90305 16.0493 6.24305 15.6393 6.24305C15.2193 6.24305 14.8793 5.90305 14.8793 5.49305V4.87305H9.00933V5.49305C9.00933 5.90305 8.66933 6.24305 8.24933 6.24305C7.83933 6.24305 7.49933 5.90305 7.49933 5.49305V4.87305H7.19933ZM16.7993 20.4936C18.4693 20.4936 19.8093 19.1536 19.8093 17.4936V9.83362H4.18933V17.4936C4.18933 19.1536 5.53933 20.4936 7.19933 20.4936H16.7993Z" fill="#181818"/>
</g>
</g>
<defs>
<clipPath id="clip0_0_956">
<rect width="24" height="24" fill="white"/>
</clipPath>
<clipPath id="clip1_0_956">
<rect width="18.6281" height="20" fill="white" transform="translate(2.68591 2)"/>
</clipPath>
</defs>
</svg>
