<svg width="26" height="26" viewBox="0 0 26 26" fill="none" xmlns="http://www.w3.org/2000/svg">
<g clip-path="url(#clip0_0_1110)">
<g clip-path="url(#clip1_0_1110)">
<path fill-rule="evenodd" clip-rule="evenodd" d="M15.1289 12.4819V23.1219C15.1289 23.5719 14.8989 23.9919 14.5289 24.2319C14.3089 24.3819 14.0589 24.4519 13.7889 24.4519C13.6089 24.4519 13.4289 24.4219 13.2689 24.3519L9.44887 22.7119C8.75887 22.4219 8.31887 21.7619 8.31887 21.0219V12.4819L2.95887 6.11188C2.55887 5.64188 2.47887 5.01188 2.73887 4.45188C2.99887 3.90188 3.53887 3.55188 4.14887 3.55188H19.3089C19.9089 3.55188 20.4589 3.90188 20.7089 4.45188C20.9689 5.01188 20.8889 5.64188 20.4889 6.11188L15.1289 12.4819ZM9.94296 21.0199V11.8999L4.28296 5.16992H19.173L13.503 11.8999V22.6899L10.073 21.2299C9.99296 21.1799 9.94296 21.1099 9.94296 21.0199ZM19.4995 16.5033H22.6095C23.0495 16.5033 23.4195 16.8633 23.4195 17.3133C23.4195 17.7633 23.0495 18.1233 22.6095 18.1233H19.4995C19.0495 18.1233 18.6895 17.7633 18.6895 17.3133C18.6895 16.8633 19.0495 16.5033 19.4995 16.5033ZM19.4995 20.651H22.6095C23.0495 20.651 23.4195 21.011 23.4195 21.461C23.4195 21.911 23.0495 22.271 22.6095 22.271H19.4995C19.0495 22.271 18.6895 21.911 18.6895 21.461C18.6895 21.011 19.0495 20.651 19.4995 20.651Z" fill="#181818"/>
<path fill-rule="evenodd" clip-rule="evenodd" d="M19.4997 12.3518H22.6097C23.0497 12.3518 23.4197 12.7118 23.4197 13.1618C23.4197 13.6118 23.0497 13.9718 22.6097 13.9718H19.4997C19.0497 13.9718 18.6897 13.6118 18.6897 13.1618C18.6897 12.7118 19.0497 12.3518 19.4997 12.3518Z" fill="#181818"/>
</g>
</g>
<defs>
<clipPath id="clip0_0_1110">
<rect width="26" height="26" fill="white"/>
</clipPath>
<clipPath id="clip1_0_1110">
<rect width="20.83" height="20.9" fill="white" transform="translate(2.58936 3.55151)"/>
</clipPath>
</defs>
</svg>
