<svg width="17" height="17" viewBox="0 0 17 17" fill="none" xmlns="http://www.w3.org/2000/svg">
<g clip-path="url(#clip0_0_749)">
<g clip-path="url(#clip1_0_749)">
<path fill-rule="evenodd" clip-rule="evenodd" d="M11.5157 4.20665V3.19665C11.5157 2.36665 10.8357 1.68665 9.99569 1.68665H6.96569C6.13569 1.68665 5.45569 2.36665 5.45569 3.19665V4.20665H2.67569C2.41569 4.22665 2.20569 4.44665 2.20569 4.71665C2.20569 4.97665 2.41569 5.20665 2.67569 5.21665H3.43569V13.2966C3.43569 14.4066 4.34569 15.3166 5.45569 15.3166H11.5157C12.6257 15.3066 13.5257 14.4066 13.5357 13.2966V5.21665H14.2857C14.5657 5.21665 14.7957 4.99665 14.7957 4.71665C14.7957 4.43665 14.5657 4.20665 14.2857 4.20665H11.5157ZM6.46509 4.20556H10.5051V3.19556C10.5051 2.92556 10.2751 2.69556 9.99509 2.69556H6.96509C6.69509 2.69556 6.46509 2.92556 6.46509 3.19556V4.20556ZM12.516 13.2896V5.2196H4.44604V13.2896C4.44604 13.8496 4.89604 14.2996 5.45604 14.2996H11.516C12.066 14.2996 12.516 13.8496 12.516 13.2896Z" fill="#656565"/>
<path fill-rule="evenodd" clip-rule="evenodd" d="M6.46399 11.7775C6.48399 12.0475 6.70399 12.2575 6.96399 12.2575C7.23399 12.2575 7.45399 12.0475 7.47399 11.7775V7.74755C7.47399 7.46755 7.24399 7.23755 6.96399 7.23755C6.69399 7.23755 6.46399 7.46755 6.46399 7.74755V11.7775ZM9.49292 11.7775C9.51292 12.0475 9.73292 12.2575 10.0029 12.2575C10.2629 12.2575 10.4829 12.0475 10.5029 11.7775V7.74755C10.5029 7.46755 10.2729 7.23755 10.0029 7.23755C9.72292 7.23755 9.49292 7.46755 9.49292 7.74755V11.7775Z" fill="#656565"/>
</g>
</g>
<defs>
<clipPath id="clip0_0_749">
<rect width="17" height="17" fill="white"/>
</clipPath>
<clipPath id="clip1_0_749">
<rect width="12.5887" height="13.6267" fill="white" transform="translate(2.20569 1.68665)"/>
</clipPath>
</defs>
</svg>
