<svg width="24" height="24" viewBox="0 0 24 24" fill="none" xmlns="http://www.w3.org/2000/svg">
<g clip-path="url(#clip0_0_657)">
<path fill-rule="evenodd" clip-rule="evenodd" d="M18.9573 21.7908H15.9773C15.5373 21.7908 15.1673 21.4408 15.1373 21.0008C15.1173 20.5508 15.4373 20.1608 15.8773 20.1108L15.9873 20.1008H18.9673C19.5473 20.1008 20.0273 19.6708 20.0973 19.0908L20.1073 18.9708V16.4708C20.1073 16.0108 20.4873 15.6308 20.9473 15.6308C21.3773 15.6308 21.7373 15.9508 21.7873 16.3708L21.7973 16.4808V18.9608C21.7973 20.4608 20.6273 21.7008 19.1373 21.7908H18.9573ZM2.21033 19.1308V18.9608V16.4708C2.21033 16.0108 2.59033 15.6308 3.06033 15.6308C3.48033 15.6308 3.84033 15.9508 3.89033 16.3708L3.90033 16.4808V18.9608C3.90033 19.5408 4.33033 20.0308 4.91033 20.1008H5.03033H8.03033C8.48033 20.1008 8.85033 20.4508 8.87033 20.9008C8.90033 21.3408 8.57033 21.7308 8.13033 21.7908H8.03033H5.04033C3.54033 21.7908 2.30033 20.6208 2.21033 19.1308ZM20.9523 12.8472H3.05228C2.59228 12.8472 2.21228 12.4672 2.21228 11.9972C2.21228 11.5372 2.59228 11.1572 3.05228 11.1572H20.9523C21.4123 11.1572 21.7923 11.5372 21.7923 11.9972C21.7923 12.4672 21.4123 12.8472 20.9523 12.8472ZM21.7973 5.03978V7.52978C21.7973 7.96978 21.4473 8.33978 20.9973 8.36978C20.5573 8.39978 20.1673 8.06978 20.1173 7.62978L20.1073 7.51978V5.03978C20.1073 4.45978 19.6773 3.96978 19.0973 3.90978L18.9673 3.89978H15.9773C15.5373 3.89978 15.1673 3.54978 15.1373 3.09978C15.1173 2.65978 15.4373 2.26978 15.8773 2.21978L15.9873 2.20978H18.9673C20.4573 2.20978 21.7073 3.37978 21.7873 4.86978L21.7973 5.03978ZM3.90228 5.02978V7.52978C3.90228 7.96978 3.55228 8.33978 3.10228 8.36978C2.66228 8.39978 2.27228 8.06978 2.22228 7.62978L2.21228 7.51978V5.03978C2.21228 3.53978 3.38228 2.29978 4.87228 2.20978H5.04228H8.03228C8.47228 2.20978 8.84228 2.55978 8.87228 2.99978C8.90228 3.44978 8.57228 3.83978 8.13228 3.88978L8.02228 3.89978H5.04228C4.46228 3.89978 3.97228 4.32978 3.91228 4.90978L3.90228 5.02978Z" fill="black"/>
</g>
<defs>
<clipPath id="clip0_0_657">
<rect width="24" height="24" fill="white"/>
</clipPath>
</defs>
</svg>
