<svg width="24" height="24" viewBox="0 0 24 24" fill="none" xmlns="http://www.w3.org/2000/svg">
<g clip-path="url(#clip0_0_651)">
<path fill-rule="evenodd" clip-rule="evenodd" d="M19.0904 11.1104C19.0904 6.72038 15.5104 3.14038 11.1104 3.14038C6.72038 3.14038 3.14038 6.72038 3.14038 11.1104C3.14038 15.5104 6.72038 19.0904 11.1104 19.0904C15.5104 19.0904 19.0904 15.5104 19.0904 11.1104ZM18.5984 17.3484C20.0084 15.6584 20.8584 13.4884 20.8584 11.1184C20.8584 5.72841 16.4984 1.36841 11.1184 1.36841C5.72841 1.36841 1.36841 5.72841 1.36841 11.1184C1.36841 16.4984 5.72841 20.8584 11.1184 20.8584C13.4884 20.8584 15.6584 20.0084 17.3484 18.5984L21.1184 22.3684C21.4684 22.7184 22.0284 22.7184 22.3684 22.3684C22.7184 22.0284 22.7184 21.4684 22.3684 21.1184L18.5984 17.3484Z" fill="#181818"/>
</g>
<defs>
<clipPath id="clip0_0_651">
<rect width="24" height="24" fill="white"/>
</clipPath>
</defs>
</svg>
