<svg width="28" height="28" viewBox="0 0 28 28" fill="none" xmlns="http://www.w3.org/2000/svg">
<g clip-path="url(#clip0_0_6334)">
<path fill-rule="evenodd" clip-rule="evenodd" d="M10 4C7.79086 4 6 5.79086 6 8V19C6 19.5523 6.44772 20 7 20H21C21.5523 20 22 19.5523 22 19V8C22 5.79086 20.2091 4 18 4H10ZM26 13.73V21C26 21.8 25.68 22.56 25.12 23.12C24.56 23.68 23.8 24 23 24H5C4.2 24 3.44 23.68 2.88 23.12C2.32 22.56 2 21.8 2 21V13.73C1.85 13.64 1.71 13.54 1.59 13.41C1.21 13.04 1 12.53 1 12C1 11.47 1.21 10.96 1.59 10.59C1.96 10.21 2.47 10 3 10C3.53 10 4.04 10.21 4.41 10.59C4.79 10.96 5 11.47 5 12V20C5 20.27 5.11 20.52 5.29 20.71C5.48 20.89 5.73 21 6 21H22C22.27 21 22.52 20.89 22.71 20.71C22.89 20.52 23 20.27 23 20V12C23 11.47 23.21 10.96 23.59 10.59C23.96 10.21 24.47 10 25 10C25.53 10 26.04 10.21 26.41 10.59C26.79 10.96 27 11.47 27 12C27 12.53 26.79 13.04 26.41 13.41C26.29 13.54 26.15 13.64 26 13.73Z" fill="#DFE5E6"/>
</g>
<defs>
<clipPath id="clip0_0_6334">
<rect width="28" height="28" fill="white"/>
</clipPath>
</defs>
</svg>
