<svg width="22" height="22" viewBox="0 0 22 22" fill="none" xmlns="http://www.w3.org/2000/svg">
<g clip-path="url(#clip0_0_305)">
<g clip-path="url(#clip1_0_305)">
<mask id="mask0_0_305" style="mask-type:luminance" maskUnits="userSpaceOnUse" x="0" y="0" width="22" height="22">
<path fill-rule="evenodd" clip-rule="evenodd" d="M0 0H22V22H0V0Z" fill="white"/>
</mask>
<g mask="url(#mask0_0_305)">
<path fill-rule="evenodd" clip-rule="evenodd" d="M8 5.5C8 3.84315 9.34315 2.5 11 2.5V2.5C12.6569 2.5 14 3.84315 14 5.5V7.5C14 9.15685 12.6569 10.5 11 10.5V10.5C9.34315 10.5 8 9.15685 8 7.5V5.5Z" stroke="#CCCCCC" stroke-width="1.4" stroke-linejoin="round"/>
<path d="M15 17.5V19.5" stroke="#CCCCCC" stroke-width="1.4" stroke-linejoin="round"/>
<path d="M7 17.5V19.5" stroke="#CCCCCC" stroke-width="1.4" stroke-linejoin="round"/>
<path d="M3 19.5025V17.5825C3 16.3325 3.78 15.2125 4.95 14.7725L7 14.0025C9.58 13.0325 12.42 13.0325 15 14.0025L17.05 14.7725C18.22 15.2125 19 16.3325 19 17.5825V19.5025" stroke="#CCCCCC" stroke-width="1.4" stroke-linejoin="round"/>
</g>
</g>
</g>
<defs>
<clipPath id="clip0_0_305">
<rect width="22" height="22" fill="white"/>
</clipPath>
<clipPath id="clip1_0_305">
<rect width="22" height="22" fill="white"/>
</clipPath>
</defs>
</svg>
