<svg width="22" height="22" viewBox="0 0 22 22" fill="none" xmlns="http://www.w3.org/2000/svg">
<g clip-path="url(#clip0_0_133)">
<path fill-rule="evenodd" clip-rule="evenodd" d="M5 4C5 2.89543 5.89543 2 7 2H15C16.1046 2 17 2.89543 17 4V18C17 19.1046 16.1046 20 15 20H7C5.89543 20 5 19.1046 5 18V4Z" stroke="#CCCCCC" stroke-width="1.4" stroke-linejoin="round"/>
<path fill-rule="evenodd" clip-rule="evenodd" d="M14 3V2H8V3C8 3.55 8.45 4 9 4H13C13.55 4 14 3.55 14 3Z" fill="#CCCCCC"/>
<path fill-rule="evenodd" clip-rule="evenodd" d="M11 18C11.55 18 12 17.55 12 17C12 16.45 11.55 16 11 16C10.45 16 10 16.45 10 17C10 17.55 10.45 18 11 18Z" fill="#CCCCCC"/>
</g>
<defs>
<clipPath id="clip0_0_133">
<rect width="22" height="22" fill="white"/>
</clipPath>
</defs>
</svg>
